<svg width="114" height="114" viewBox="0 0 114 114" fill="none" xmlns="http://www.w3.org/2000/svg">
<path fill-rule="evenodd" clip-rule="evenodd" d="M47.5819 95.0173C47.6065 95.6008 47.5436 96.1702 47.4207 96.7465C47.2048 97.7593 46.7878 98.8309 46.1976 99.821C44.5198 102.636 41.6696 104.514 38 104.514C29.3555 104.514 25.9627 100.273 21.7147 89.653C18.8377 82.4605 17.4805 80.7639 14.25 80.7639L14.25 71.2639C22.8945 71.2639 26.2873 75.5048 30.5353 86.1248C33.4123 93.3173 34.7695 95.0139 38 95.0139C38 93.6356 37.9811 92.4147 37.9414 90.7614C37.8483 86.8864 37.8376 86.0953 38.0066 85.0594C38.0742 82.7979 38.658 81.1934 39.8287 79.6008C29.2277 77.2931 22.0776 72.527 17.9739 64.7967L16.4366 61.1815C14.939 56.8775 14.25 52.0008 14.25 46.3687C14.25 39.8823 16.2276 34.0826 19.9216 29.2347C18.7693 24.6265 18.9271 18.9963 21.4715 12.6379L22.3029 10.5602L24.4343 9.87838C24.7197 9.7871 25.0666 9.70465 25.4742 9.64069C29.6246 8.98927 35.5305 10.5435 43.2513 15.489C47.8029 14.4339 52.596 13.9012 57.4217 13.9012C61.734 13.9012 66.0224 14.336 70.1178 15.1931C77.6295 10.489 83.3731 9.01359 87.4119 9.64152C87.8148 9.70416 88.1581 9.78503 88.4412 9.87478L90.5859 10.5549L91.4183 12.6453C93.6441 18.2348 94.0261 23.386 93.2162 27.8934C97.4627 32.9888 99.75 39.253 99.75 46.3687C99.75 52.3676 99.3202 56.8785 98.0848 61.2669L96.7808 64.8454C93.3673 72.5675 85.8394 77.387 74.2308 79.6824C75.4374 81.3531 76 83.0491 76 85.5139V90.2639C76 92.5658 76 92.6367 75.9948 95.0139C76.0055 95.1846 76.0198 95.2682 76.0353 95.3203C76.0315 95.3216 76 104.514 76 104.514C71.954 104.514 68.9456 102.541 67.466 99.4282C66.6989 97.8145 66.4697 96.2736 66.5 94.9465V85.5139C66.5 85.1156 66.4862 85.0926 65.5162 84.1227C62.9237 81.5301 61.75 79.574 61.75 76.0139V71.7171L66.0254 71.2877C78.7519 70.0096 85.6736 66.4753 87.9685 61.3122L89.0409 58.3804C89.8943 55.3148 90.25 51.5815 90.25 46.3687C90.25 40.8298 88.3163 36.2542 84.6592 32.5986L82.6491 30.5892L83.4695 27.868C84.1983 25.4506 84.3716 22.59 83.6005 19.3273C83.4724 19.3597 83.3392 19.3951 83.2009 19.4336C80.6576 20.1417 77.4821 21.661 73.6556 24.2188L71.9103 25.3854L69.8728 24.8801C65.9318 23.9029 61.697 23.4012 57.4217 23.4012C52.6673 23.4012 47.9677 24.0061 43.6262 25.1897L41.5074 25.7673L39.6949 24.5274C35.7372 21.82 32.4494 20.2099 29.813 19.4577C29.6247 19.404 29.4454 19.356 29.275 19.3131C28.3552 23.0893 28.719 26.1918 29.6506 28.5198L30.7676 31.3111L28.7227 33.5151C25.4643 37.0272 23.75 41.3011 23.75 46.3687C23.75 51.0083 24.2931 54.8528 25.2884 57.7487L26.5314 60.691C29.6388 66.5218 36.2387 70.0296 48.0063 71.291L52.25 71.7459V76.0139C52.25 79.574 51.0763 81.5301 48.4838 84.1227C47.5138 85.0926 47.5 85.1156 47.5 85.5139L47.4181 86.392C47.3639 86.68 47.364 87.4237 47.4387 90.5332C47.473 91.9634 47.4926 93.0953 47.4983 94.2782C47.555 94.523 47.5636 94.681 47.5819 95.0173Z" fill="white"/>
</svg>
