<svg width="114" height="114" viewBox="0 0 114 114" fill="none" xmlns="http://www.w3.org/2000/svg">
<path fill-rule="evenodd" clip-rule="evenodd" d="M76 9.5H38C22.2599 9.5 9.5 22.2599 9.5 38V76C9.5 91.7401 22.2599 104.5 38 104.5H76C91.7401 104.5 104.5 91.7401 104.5 76V38C104.5 22.2599 91.7401 9.5 76 9.5ZM19 38C19 27.5066 27.5066 19 38 19H76C86.4934 19 95 27.5066 95 38V76C95 86.4934 86.4934 95 76 95H38C27.5066 95 19 86.4934 19 76V38ZM57 80.75C43.8832 80.75 33.25 70.1168 33.25 57C33.25 43.8832 43.8832 33.25 57 33.25C70.1168 33.25 80.75 43.8832 80.75 57C80.75 70.1168 70.1168 80.75 57 80.75ZM57 71.25C64.8701 71.25 71.25 64.8701 71.25 57C71.25 49.1299 64.8701 42.75 57 42.75C49.1299 42.75 42.75 49.1299 42.75 57C42.75 64.8701 49.1299 71.25 57 71.25ZM85.5 33.25C85.5 35.8734 83.3734 38 80.75 38C78.1266 38 76 35.8734 76 33.25C76 30.6266 78.1266 28.5 80.75 28.5C83.3734 28.5 85.5 30.6266 85.5 33.25Z" fill="white"/>
</svg>
