<svg width="114" height="114" viewBox="0 0 114 114" fill="none" xmlns="http://www.w3.org/2000/svg">
<path fill-rule="evenodd" clip-rule="evenodd" d="M19 9.5H95C100.247 9.5 104.5 13.7533 104.5 19V95C104.5 100.247 100.247 104.5 95 104.5H19C13.7533 104.5 9.5 100.247 9.5 95V19C9.5 13.7533 13.7533 9.5 19 9.5ZM19 19V95H95V19H19ZM61.75 42.75C59.2907 42.75 56.6924 43.5017 54.3977 44.8977L52.25 42.75H47.5V76H57V57C57 54.2652 59.8213 52.25 61.75 52.25H66.5C68.4287 52.25 71.25 54.2652 71.25 57V76H80.75V57C80.75 48.1991 73.1213 42.75 66.5 42.75H61.75ZM38 38C40.6234 38 42.75 35.8734 42.75 33.25C42.75 30.6266 40.6234 28.5 38 28.5C35.3766 28.5 33.25 30.6266 33.25 33.25C33.25 35.8734 35.3766 38 38 38ZM33.25 42.75V76H42.75V42.75H33.25Z" fill="white"/>
</svg>
