<svg width="114" height="114" viewBox="0 0 114 114" fill="none" xmlns="http://www.w3.org/2000/svg">
<path fill-rule="evenodd" clip-rule="evenodd" d="M63.3801 31.0821L70.1488 37.748L40.1374 68.2227C38.6315 69.7598 38.6315 72.2335 40.1374 73.7705C41.5664 75.2291 43.9536 75.2224 45.3674 73.7625L78.3865 40.2198C83.2069 35.3006 83.2069 27.4003 78.3865 22.4811C73.7874 17.7876 65.6497 17.892 61.1423 22.49L25.1027 59.0753C16.9659 67.3756 16.9659 80.7039 25.1027 89.0041C33.0039 97.0641 46.577 96.9328 54.3548 88.9967L96.3875 46.3073L103.157 52.9726L61.1319 95.6541C49.6658 107.354 29.974 107.544 18.3187 95.6545C6.56059 83.6601 6.56059 64.4193 18.3268 52.4167L54.3664 15.8314C62.5527 7.48061 76.809 7.29771 85.1719 15.8321C93.6117 24.4451 93.6117 38.2558 85.1643 46.8766L52.165 80.3989C47.0603 85.671 38.5205 85.6948 33.3515 80.419C28.2268 75.1883 28.2268 66.805 33.3601 61.5656L63.3801 31.0821Z" fill="white"/>
</svg>
