<svg width="114" height="114" viewBox="0 0 114 114" fill="none" xmlns="http://www.w3.org/2000/svg">
<path fill-rule="evenodd" clip-rule="evenodd" d="M78.0774 9.5C81.1874 9.5 84.1687 10.7417 86.346 12.9363L101.075 27.6655C103.268 29.8585 104.5 32.8328 104.5 35.9341C104.5 39.0355 103.268 42.0098 101.075 44.2027L47.2982 97.9628C43.9804 101.79 39.2773 104.142 33.8894 104.511H9.5V99.7611L9.51543 79.7397C9.92008 74.731 12.2487 70.0736 15.8009 66.9437L69.8031 12.942C71.9929 10.7389 74.9709 9.5 78.0774 9.5ZM33.5539 95.0229C36.0915 94.8433 38.4536 93.6623 40.3503 91.4927L76.2694 55.5736L58.4361 37.7396L22.3065 73.8606C20.382 75.5626 19.1915 77.9439 19 80.1222V95.014L33.5539 95.0229ZM65.1544 31.0229L82.9869 48.8561L94.3578 37.4852C94.7691 37.0738 95.0003 36.5159 95.0003 35.9341C95.0003 35.3524 94.7691 34.7944 94.3578 34.383L79.6153 19.6406C79.2086 19.2306 78.655 19 78.0774 19C77.4999 19 76.9463 19.2306 76.5395 19.6406L65.1544 31.0229Z" fill="white"/>
</svg>
